<?xml version="1.0" encoding="UTF-8"?>
<svg version="1.1" xmlns="http://www.w3.org/2000/svg" width="115" height="30">
<path d="M0 0 C3.69230769 0.69230769 3.69230769 0.69230769 5 2 C5.35897436 8.46153846 5.35897436 8.46153846 3 12 C-0.2578125 12.29296875 -0.2578125 12.29296875 -4.125 12.1875 C-6.04699219 12.14689453 -6.04699219 12.14689453 -8.0078125 12.10546875 C-8.99523437 12.07066406 -9.98265625 12.03585938 -11 12 C-11.144375 12.804375 -11.28875 13.60875 -11.4375 14.4375 C-12 17 -12 17 -13 18 C-14.9609375 18.203125 -14.9609375 18.203125 -17.375 18.25 C-18.16648437 18.27578125 -18.95796875 18.3015625 -19.7734375 18.328125 C-22 18 -22 18 -23.76953125 16.703125 C-25.79310033 13.90224843 -25.29755831 11.33265309 -25 8 C-24.34 7.01 -23.68 6.02 -23 5 C-21.68 5.33 -20.36 5.66 -19 6 C-19.33 8.64 -19.66 11.28 -20 14 C-18.35 14.33 -16.7 14.66 -15 15 C-15 10.71 -15 6.42 -15 2 C-13.68 2 -12.36 2 -11 2 C-11 4.31 -11 6.62 -11 9 C-9.68 9 -8.36 9 -7 9 C-7 6.36 -7 3.72 -7 1 C-5.68 1 -4.36 1 -3 1 C-3 3.64 -3 6.28 -3 9 C-2.01 8.67 -1.02 8.34 0 8 C-0.185625 6.865625 -0.37125 5.73125 -0.5625 4.5625 C-0.706875 3.386875 -0.85125 2.21125 -1 1 C-0.67 0.67 -0.34 0.34 0 0 Z " fill="#EF394E" transform="translate(77,7)"/>
<path d="M0 0 C7.93220339 0.33898305 7.93220339 0.33898305 11.625 2.625 C13.59587338 6.02923583 12.91424723 8.27268437 12 12 C11 13 11 13 8.05859375 13.09765625 C6.26615234 13.08025391 6.26615234 13.08025391 4.4375 13.0625 C2.64119141 13.04896484 2.64119141 13.04896484 0.80859375 13.03515625 C-0.11824219 13.02355469 -1.04507812 13.01195312 -2 13 C-2.33 14.65 -2.66 16.3 -3 18 C-7.79300133 19.39151652 -12.15135782 18.68662689 -17 18 C-17 17.01 -17 16.02 -17 15 C-13.7 15 -10.4 15 -7 15 C-6.67 10.71 -6.34 6.42 -6 2 C-4.68 2 -3.36 2 -2 2 C-2 4.64 -2 7.28 -2 10 C1.3 10 4.6 10 8 10 C7.67 8.35 7.34 6.7 7 5 C4.69 4.34 2.38 3.68 0 3 C0 2.01 0 1.02 0 0 Z " fill="#EF394E" transform="translate(31,6)"/>
<path d="M0 0 C2 2 2 2 2.125 5.625 C2.08375 6.73875 2.0425 7.8525 2 9 C3.65 9 5.3 9 7 9 C6.67 6.03 6.34 3.06 6 0 C7.65 0.33 9.3 0.66 11 1 C11.05399736 2.45792884 11.09279177 3.91642712 11.125 5.375 C11.14820312 6.18710938 11.17140625 6.99921875 11.1953125 7.8359375 C11 10 11 10 9 12 C5.375 12.125 5.375 12.125 2 12 C1.67 13.65 1.34 15.3 1 17 C-3.75 18.125 -3.75 18.125 -6 17 C-6 16.01 -6 15.02 -6 14 C-4.68 14.33 -3.36 14.66 -2 15 C-2 14.01 -2 13.02 -2 12 C-3.65 12 -5.3 12 -7 12 C-8.10647808 9.78704384 -8.19588368 8.45327301 -8.25 6 C-8.27578125 5.29875 -8.3015625 4.5975 -8.328125 3.875 C-8.21984375 3.25625 -8.1115625 2.6375 -8 2 C-4.77626323 -0.14915785 -3.73296326 -0.38286803 0 0 Z M-3 3 C-4.29633621 4.06645115 -4.29633621 4.06645115 -4.0625 6.5625 C-4.041875 7.366875 -4.02125 8.17125 -4 9 C-3.34 9 -2.68 9 -2 9 C-2 7.02 -2 5.04 -2 3 C-2.33 3 -2.66 3 -3 3 Z " fill="#EF394E" transform="translate(101,7)"/>
<path d="M0 0 C2 3 2 3 2 7 C3.32 7 4.64 7 6 7 C6 6.236875 6 5.47375 6 4.6875 C6 2.79166667 6 0.89583333 6 -1 C7.32 -1 8.64 -1 10 -1 C11.3899408 1.7798816 11.18488204 3.9186326 11 7 C10.34 8.32 9.68 9.64 9 11 C3.39 11 -2.22 11 -8 11 C-8 10.01 -8 9.02 -8 8 C-6.35 7.67 -4.7 7.34 -3 7 C-3.33 6.01 -3.66 5.02 -4 4 C-5.32 4 -6.64 4 -8 4 C-8 2.68 -8 1.36 -8 0 C-5.06791253 -1.46604374 -3.11702298 -0.77925574 0 0 Z " fill="#EF394E" transform="translate(10,8)"/>
<path d="M0 0 C1.32 0 2.64 0 4 0 C4.02691685 2.45840605 4.04679802 4.91651882 4.0625 7.375 C4.07087891 8.07367188 4.07925781 8.77234375 4.08789062 9.4921875 C4.11328125 14.7734375 4.11328125 14.7734375 3 17 C0.69 17 -1.62 17 -4 17 C-4.33 15.68 -4.66 14.36 -5 13 C-2.525 13.495 -2.525 13.495 0 14 C0 9.38 0 4.76 0 0 Z " fill="#EF394E" transform="translate(86,7)"/>
<path d="M0 0 C1.32 0 2.64 0 4 0 C4 0.99 4 1.98 4 3 C2.68 3 1.36 3 0 3 C0 2.01 0 1.02 0 0 Z " fill="#EF394E" transform="translate(107,21)"/>
<path d="M0 0 C1.32 0 2.64 0 4 0 C4 0.99 4 1.98 4 3 C2.68 3 1.36 3 0 3 C0 2.01 0 1.02 0 0 Z " fill="#EF394E" transform="translate(36,2)"/>
</svg>
