<svg xmlns="http://www.w3.org/2000/svg" x="0px" y="0px" width="100" height="100" viewBox="0,0,256,256">
<g fill="#ef4056" fill-rule="nonzero" stroke="none" stroke-width="1" stroke-linecap="butt" stroke-linejoin="miter" stroke-miterlimit="10" stroke-dasharray="" stroke-dashoffset="0" font-family="none" font-weight="none" font-size="none" text-anchor="none" style="mix-blend-mode: normal"><g transform="scale(5.12,5.12)"><path d="M21,2c-1.64545,0 -3,1.35455 -3,3v2h-10c-0.36064,-0.0051 -0.69608,0.18438 -0.87789,0.49587c-0.18181,0.3115 -0.18181,0.69676 0,1.00825c0.18181,0.3115 0.51725,0.50097 0.87789,0.49587h1v36c0,1.654 1.346,3 3,3h26c1.654,0 3,-1.346 3,-3v-36h1c0.36064,0.0051 0.69608,-0.18438 0.87789,-0.49587c0.18181,-0.3115 0.18181,-0.69676 0,-1.00825c-0.18181,-0.3115 -0.51725,-0.50097 -0.87789,-0.49587h-10v-2c0,-1.64545 -1.35455,-3 -3,-3zM21,4h8c0.55455,0 1,0.44545 1,1v2h-10v-2c0,-0.55455 0.44545,-1 1,-1zM19,14c0.552,0 1,0.448 1,1v25c0,0.553 -0.448,1 -1,1c-0.552,0 -1,-0.447 -1,-1v-25c0,-0.552 0.448,-1 1,-1zM25,14c0.552,0 1,0.448 1,1v25c0,0.553 -0.448,1 -1,1c-0.552,0 -1,-0.447 -1,-1v-25c0,-0.552 0.448,-1 1,-1zM31,14c0.553,0 1,0.448 1,1v25c0,0.553 -0.447,1 -1,1c-0.553,0 -1,-0.447 -1,-1v-25c0,-0.552 0.447,-1 1,-1z"></path></g></g>
</svg>