<svg width="40" height="40" viewBox="0 0 40 40" fill="none" xmlns="http://www.w3.org/2000/svg">
<path d="M13.3336 16.6667C15.1745 16.6667 16.6669 15.1743 16.6669 13.3333C16.6669 11.4924 15.1745 10 13.3336 10C11.4926 10 10.0002 11.4924 10.0002 13.3333C10.0002 15.1743 11.4926 16.6667 13.3336 16.6667Z" fill="#C0C2C5"/>
<path fill-rule="evenodd" clip-rule="evenodd" d="M10 3.33333H30C33.6819 3.33333 36.6667 6.3181 36.6667 10V30C36.6667 33.6819 33.6819 36.6667 30 36.6667H10C6.31814 36.6667 3.33337 33.6819 3.33337 30V10C3.33337 6.3181 6.31814 3.33333 10 3.33333ZM10 6.66666C8.15909 6.66666 6.66671 8.15905 6.66671 10V24.3098L10.4883 20.4882C11.1392 19.8373 12.1945 19.8373 12.8453 20.4882L16.6668 24.3096L25.4883 15.4882C26.1392 14.8373 27.1945 14.8373 27.8453 15.4882L33.3334 20.9762V10C33.3334 8.15905 31.841 6.66666 30 6.66666H10ZM33.3334 25.6902L26.6668 19.0237L17.8453 27.8452C17.1945 28.496 16.1392 28.496 15.4883 27.8452L11.6668 24.0237L6.66671 29.0238V30C6.66671 31.8409 8.15909 33.3333 10 33.3333H30C31.841 33.3333 33.3334 31.8409 33.3334 30V25.6902Z" fill="#C0C2C5"/>
</svg>
